<svg data-v-fde0c5aa="" xmlns="http://www.w3.org/2000/svg" viewBox="0 0 300 300" class="font"><!----><defs data-v-fde0c5aa=""><!----></defs><rect data-v-fde0c5aa="" fill="#F4E6F2" x="0" y="0" width="300px" height="300px" class="logo-background-square"></rect><defs data-v-fde0c5aa=""><linearGradient data-v-fde0c5aa="" gradientTransform="rotate(25)" id="80ce4189-5ff9-458a-a063-bebf0a41e88a" x1="0%" y1="0%" x2="100%" y2="0%"><stop data-v-fde0c5aa="" offset="0%" stop-color="#8E42D3" stop-opacity="1"></stop><stop data-v-fde0c5aa="" offset="100%" stop-color="#D46975" stop-opacity="1"></stop></linearGradient></defs><g data-v-fde0c5aa="" id="26388eab-8785-4d01-8537-387e2ce4fb55" fill="url(#80ce4189-5ff9-458a-a063-bebf0a41e88a)" transform="matrix(3.129890413067289,0,0,3.129890413067289,41.56494520653364,125.57120521034508)"><path d="M0.95 8.36C0.01 8.36-0.50 9.03-0.50 9.63C-0.50 10.25 0.03 10.61 0.74 10.61C1.33 10.61 2.02 10.47 2.65 10.00C3.14 10.33 3.72 10.61 4.49 10.61C7.70 10.61 9.49 7 9.49 3.89C9.49 1.67 8.32-0.28 5.39-0.28C2.07-0.28 0.45 0.90 0.45 2.30C0.45 3.00 0.87 3.63 1.58 3.63C1.78 3.63 1.97 3.58 2.18 3.49C2.02 3.29 1.90 3.04 1.90 2.67C1.90 1.48 2.88 0.39 5.12 0.39C6.97 0.39 7.69 2.03 7.69 3.92C7.69 6.55 6.57 9.72 4.30 9.72C3.91 9.72 3.56 9.60 3.22 9.45C3.64 8.92 4.00 8.16 4.24 7.11L5.57 1.02C5.40 0.91 5.15 0.84 4.90 0.84C4.38 0.84 3.84 1.08 3.70 1.74L2.45 7.60C2.34 8.08 2.20 8.46 2.03 8.74C1.67 8.53 1.32 8.36 0.95 8.36ZM0.84 9.58C0.55 9.58 0.34 9.44 0.34 9.23C0.34 9.03 0.57 8.82 0.97 8.82C1.19 8.82 1.41 8.97 1.68 9.20C1.40 9.48 1.09 9.58 0.84 9.58ZM10.75 1.62C10.67 2.17 11.07 2.60 11.62 2.60C12.17 2.60 12.63 2.17 12.71 1.62C12.77 1.08 12.36 0.64 11.82 0.64C11.27 0.64 10.81 1.08 10.75 1.62ZM9.48 8.95C9.21 10.22 10.02 10.61 10.72 10.61C11.66 10.61 12.60 9.97 13.26 9.23C13.34 9.13 13.38 9.02 13.38 8.92C13.38 8.78 13.30 8.65 13.15 8.58C12.80 8.93 12.19 9.28 11.68 9.28C11.31 9.28 11.09 9.03 11.26 8.25L12.11 4.20C12.22 3.67 11.94 3.43 11.44 3.43C10.85 3.43 10.35 3.72 9.87 4.10C9.59 4.33 9.69 4.76 9.87 4.87C10.00 4.76 10.08 4.70 10.15 4.70C10.28 4.70 10.33 4.83 10.29 5.05ZM20.29 9.21C20.52 9.00 20.48 8.69 20.27 8.51C19.78 8.93 19.04 9.35 18.27 9.73C18.31 9.55 18.35 9.35 18.40 9.16L19.57 3.61C19.40 3.50 19.17 3.43 18.91 3.43C18.56 3.43 18.19 3.56 17.95 3.84C17.60 3.53 17.15 3.37 16.52 3.37C14.57 3.37 12.99 5.81 12.99 8.26C12.99 9.16 13.29 10.61 14.74 10.61C15.50 10.61 16.21 10.08 16.79 9.31C16.67 9.70 16.58 10.05 16.48 10.40C14.59 11.10 12.40 12.43 12.40 14.17C12.40 15.33 13.20 15.89 14.06 15.89C16.48 15.89 17.46 13.13 18.09 10.53C19.08 10.07 20.03 9.44 20.29 9.21ZM16.90 8.29C16.52 8.81 15.93 9.17 15.48 9.17C15.05 9.17 14.73 8.86 14.73 8.16C14.73 6.64 15.33 4.42 17.02 4.42C17.23 4.42 17.44 4.45 17.68 4.54ZM13.93 14.64C13.75 14.64 13.36 14.48 13.36 13.99C13.36 13.05 14.64 12.00 16.18 11.38C15.47 13.68 14.90 14.64 13.93 14.64ZM21.21 1.62C21.13 2.17 21.53 2.60 22.08 2.60C22.62 2.60 23.09 2.17 23.17 1.62C23.23 1.08 22.82 0.64 22.27 0.64C21.73 0.64 21.27 1.08 21.21 1.62ZM19.94 8.95C19.67 10.22 20.48 10.61 21.18 10.61C22.12 10.61 23.06 9.97 23.72 9.23C23.80 9.13 23.84 9.02 23.84 8.92C23.84 8.78 23.76 8.65 23.60 8.58C23.25 8.93 22.65 9.28 22.13 9.28C21.77 9.28 21.55 9.03 21.71 8.25L22.57 4.20C22.68 3.67 22.40 3.43 21.90 3.43C21.31 3.43 20.80 3.72 20.33 4.10C20.05 4.33 20.15 4.76 20.33 4.87C20.45 4.76 20.54 4.70 20.61 4.70C20.73 4.70 20.79 4.83 20.75 5.05ZM26.67 4.31C27.10 4.31 27.33 3.95 27.26 3.50L26.24 3.50L26.63 1.65C26.46 1.54 26.22 1.47 25.97 1.47C25.47 1.47 24.93 1.71 24.79 2.35L24.54 3.50L24.26 3.50C23.83 3.50 23.60 3.86 23.67 4.31L24.37 4.31L23.48 8.54C23.16 10.08 23.72 10.61 24.57 10.61C25.51 10.61 26.57 9.97 27.23 9.23C27.31 9.13 27.36 9.02 27.36 8.92C27.36 8.78 27.27 8.65 27.12 8.58C26.77 8.93 26.17 9.28 25.65 9.28C25.28 9.28 25.06 9.03 25.23 8.25L26.05 4.31ZM30.49 3.37C28.55 3.37 26.96 5.81 26.96 8.26C26.96 9.16 27.26 10.61 28.71 10.61C29.51 10.61 30.25 10.02 30.84 9.20C30.83 10.30 31.49 10.61 32.14 10.61C32.90 10.61 33.91 9.97 34.57 9.23C34.65 9.13 34.69 9.02 34.69 8.92C34.69 8.78 34.61 8.65 34.45 8.58C34.10 8.93 33.50 9.28 32.98 9.28C32.62 9.28 32.40 9.03 32.56 8.25L33.54 3.61C33.38 3.50 33.14 3.43 32.89 3.43C32.54 3.43 32.17 3.56 31.93 3.84C31.58 3.53 31.12 3.37 30.49 3.37ZM30.87 8.29C30.49 8.81 29.90 9.17 29.46 9.17C29.02 9.17 28.70 8.86 28.70 8.16C28.70 6.64 29.30 4.42 31.00 4.42C31.21 4.42 31.42 4.45 31.65 4.54ZM39.35 8.33C39.45 8.06 39.28 7.76 39.02 7.80C38.75 8.57 37.63 9.25 36.86 9.25C36.37 9.25 36.01 8.97 36.11 8.25C36.12 8.08 36.15 7.90 36.18 7.73C37.98 4.97 38.89 2.73 38.89 1.64C38.89 0.91 38.43 0.50 37.77 0.50C35.94 0.50 35 3.47 34.36 8.54C34.17 10.01 34.92 10.61 35.90 10.61C37.18 10.61 38.86 9.60 39.35 8.33ZM37.87 1.43C38.02 1.43 38.11 1.50 38.11 1.74C38.11 2.21 37.59 4.20 36.36 6.48C36.83 3.53 37.41 1.43 37.87 1.43ZM43.43 8.36C42.49 8.36 41.97 9.03 41.97 9.63C41.97 10.25 42.50 10.61 43.22 10.61C43.81 10.61 44.49 10.47 45.12 10.00C45.61 10.33 46.20 10.61 46.97 10.61C50.18 10.61 51.97 7 51.97 3.89C51.97 1.67 50.79-0.28 47.87-0.28C44.55-0.28 42.92 0.90 42.92 2.30C42.92 3.00 43.34 3.63 44.06 3.63C44.25 3.63 44.45 3.58 44.66 3.49C44.49 3.29 44.38 3.04 44.38 2.67C44.38 1.48 45.36 0.39 47.60 0.39C49.45 0.39 50.16 2.03 50.16 3.92C50.16 6.55 49.04 9.72 46.77 9.72C46.38 9.72 46.03 9.60 45.70 9.45C46.12 8.92 46.48 8.16 46.72 7.11L48.05 1.02C47.88 0.91 47.63 0.84 47.38 0.84C46.86 0.84 46.31 1.08 46.17 1.74L44.93 7.60C44.81 8.08 44.67 8.46 44.51 8.74C44.14 8.53 43.79 8.36 43.43 8.36ZM43.32 9.58C43.02 9.58 42.81 9.44 42.81 9.23C42.81 9.03 43.05 8.82 43.44 8.82C43.67 8.82 43.89 8.97 44.16 9.20C43.88 9.48 43.57 9.58 43.32 9.58ZM55.52 3.37C53.58 3.37 52.00 5.81 52.00 8.26C52.00 9.16 52.29 10.61 53.75 10.61C54.54 10.61 55.29 10.02 55.87 9.20C55.86 10.30 56.52 10.61 57.18 10.61C57.93 10.61 58.94 9.97 59.60 9.23C59.68 9.13 59.72 9.02 59.72 8.92C59.72 8.78 59.64 8.65 59.49 8.58C59.14 8.93 58.53 9.28 58.02 9.28C57.65 9.28 57.43 9.03 57.60 8.25L58.58 3.61C58.41 3.50 58.17 3.43 57.92 3.43C57.57 3.43 57.20 3.56 56.97 3.84C56.62 3.53 56.15 3.37 55.52 3.37ZM55.90 8.29C55.52 8.81 54.94 9.17 54.49 9.17C54.05 9.17 53.73 8.86 53.73 8.16C53.73 6.64 54.33 4.42 56.03 4.42C56.24 4.42 56.45 4.45 56.69 4.54ZM61.92 4.20C62.03 3.67 61.75 3.43 61.25 3.43C60.66 3.43 60.16 3.72 59.68 4.10C59.40 4.33 59.50 4.76 59.68 4.87C59.81 4.76 59.89 4.70 59.96 4.70C60.09 4.70 60.14 4.83 60.10 5.05L58.95 10.43C59.12 10.54 59.36 10.61 59.61 10.61C60.12 10.61 60.65 10.37 60.79 9.73L60.96 8.88C61.67 5.64 62.33 5.01 62.79 5.01C63.08 5.01 63.22 5.17 63.22 5.36C63.22 5.53 63.17 5.71 63.07 5.80C63.20 5.84 63.35 5.85 63.48 5.85C64.20 5.85 64.60 5.17 64.60 4.54C64.60 3.96 64.25 3.43 63.57 3.43C62.93 3.43 62.33 3.82 61.77 4.96ZM67.12 4.20C67.23 3.67 66.95 3.43 66.44 3.43C65.86 3.43 65.35 3.72 64.88 4.10C64.60 4.33 64.69 4.76 64.88 4.87C65.00 4.76 65.09 4.70 65.16 4.70C65.28 4.70 65.34 4.83 65.30 5.05L64.15 10.43C64.32 10.54 64.55 10.61 64.81 10.61C65.31 10.61 65.84 10.37 65.98 9.73L66.15 8.88C66.86 5.64 67.52 5.01 67.98 5.01C68.28 5.01 68.42 5.17 68.42 5.36C68.42 5.53 68.36 5.71 68.26 5.80C68.39 5.84 68.54 5.85 68.67 5.85C69.40 5.85 69.79 5.17 69.79 4.54C69.79 3.96 69.44 3.43 68.77 3.43C68.12 3.43 67.52 3.82 66.96 4.96Z"></path></g><!----><!----></svg>